<svg id="visual" viewBox="0 0 960 540" width="960" height="540" xmlns="http://www.w3.org/2000/svg" xmlns:xlink="http://www.w3.org/1999/xlink" version="1.1"><rect x="0" y="0" width="960" height="540" fill="#333333"></rect><path d="M0 291L20 295.5C40 300 80 309 120 312.8C160 316.7 200 315.3 240 312C280 308.7 320 303.3 360 305.2C400 307 440 316 480 325.8C520 335.7 560 346.3 600 352.2C640 358 680 359 720 349.5C760 340 800 320 840 309.2C880 298.3 920 296.7 940 295.8L960 295L960 541L940 541C920 541 880 541 840 541C800 541 760 541 720 541C680 541 640 541 600 541C560 541 520 541 480 541C440 541 400 541 360 541C320 541 280 541 240 541C200 541 160 541 120 541C80 541 40 541 20 541L0 541Z" fill="#faa300"></path><path d="M0 336L20 344.5C40 353 80 370 120 373.7C160 377.3 200 367.7 240 362.7C280 357.7 320 357.3 360 361.8C400 366.3 440 375.7 480 378.5C520 381.3 560 377.7 600 374.5C640 371.3 680 368.7 720 368.7C760 368.7 800 371.3 840 365.5C880 359.7 920 345.3 940 338.2L960 331L960 541L940 541C920 541 880 541 840 541C800 541 760 541 720 541C680 541 640 541 600 541C560 541 520 541 480 541C440 541 400 541 360 541C320 541 280 541 240 541C200 541 160 541 120 541C80 541 40 541 20 541L0 541Z" fill="#df7a0c"></path><path d="M0 378L20 378.3C40 378.7 80 379.3 120 379.8C160 380.3 200 380.7 240 389.3C280 398 320 415 360 420.7C400 426.3 440 420.7 480 422.2C520 423.7 560 432.3 600 427.7C640 423 680 405 720 403.5C760 402 800 417 840 421.2C880 425.3 920 418.7 940 415.3L960 412L960 541L940 541C920 541 880 541 840 541C800 541 760 541 720 541C680 541 640 541 600 541C560 541 520 541 480 541C440 541 400 541 360 541C320 541 280 541 240 541C200 541 160 541 120 541C80 541 40 541 20 541L0 541Z" fill="#bf5313"></path><path d="M0 454L20 449C40 444 80 434 120 430.5C160 427 200 430 240 431.7C280 433.3 320 433.7 360 436.3C400 439 440 444 480 447.3C520 450.7 560 452.3 600 454.2C640 456 680 458 720 454.7C760 451.3 800 442.7 840 436.7C880 430.7 920 427.3 940 425.7L960 424L960 541L940 541C920 541 880 541 840 541C800 541 760 541 720 541C680 541 640 541 600 541C560 541 520 541 480 541C440 541 400 541 360 541C320 541 280 541 240 541C200 541 160 541 120 541C80 541 40 541 20 541L0 541Z" fill="#9b2e14"></path><path d="M0 489L20 484.8C40 480.7 80 472.3 120 469.3C160 466.3 200 468.7 240 472.7C280 476.7 320 482.3 360 486.5C400 490.7 440 493.3 480 496.3C520 499.3 560 502.7 600 499.3C640 496 680 486 720 483C760 480 800 484 840 487.2C880 490.3 920 492.7 940 493.8L960 495L960 541L940 541C920 541 880 541 840 541C800 541 760 541 720 541C680 541 640 541 600 541C560 541 520 541 480 541C440 541 400 541 360 541C320 541 280 541 240 541C200 541 160 541 120 541C80 541 40 541 20 541L0 541Z" fill="#750510"></path></svg>